<svg xmlns="http://www.w3.org/2000/svg" width="1180" height="780" viewBox="0 0 1180 780">
<rect width="100%" height="100%" fill="#ffffff"/>
<text x="590.0" y="30" text-anchor="middle" font-size="24" font-weight="700">E=64/k=8 natural training: topology persists, operational jump shrinks</text>
<rect x="90" y="70" width="480" height="250" fill="#fff" stroke="#d0d0d0"/>
<text x="90" y="54" font-size="20" font-weight="700" fill="#111">M2 expert cliff stays flat</text>
<line x1="90.0" y1="70" x2="90.0" y2="320" stroke="#eee"/>
<text x="90.0" y="344" text-anchor="middle" font-size="13" fill="#444">0</text>
<line x1="186.0" y1="70" x2="186.0" y2="320" stroke="#eee"/>
<text x="186.0" y="344" text-anchor="middle" font-size="13" fill="#444">1600</text>
<line x1="282.0" y1="70" x2="282.0" y2="320" stroke="#eee"/>
<text x="282.0" y="344" text-anchor="middle" font-size="13" fill="#444">3200</text>
<line x1="378.0" y1="70" x2="378.0" y2="320" stroke="#eee"/>
<text x="378.0" y="344" text-anchor="middle" font-size="13" fill="#444">4799</text>
<line x1="474.0" y1="70" x2="474.0" y2="320" stroke="#eee"/>
<text x="474.0" y="344" text-anchor="middle" font-size="13" fill="#444">6399</text>
<line x1="570.0" y1="70" x2="570.0" y2="320" stroke="#eee"/>
<text x="570.0" y="344" text-anchor="middle" font-size="13" fill="#444">7999</text>
<line x1="90" y1="70.0" x2="570" y2="70.0" stroke="#eee"/>
<text x="80" y="75.0" text-anchor="end" font-size="13" fill="#444">0.72</text>
<line x1="90" y1="132.5" x2="570" y2="132.5" stroke="#eee"/>
<text x="80" y="137.5" text-anchor="end" font-size="13" fill="#444">0.71</text>
<line x1="90" y1="195.0" x2="570" y2="195.0" stroke="#eee"/>
<text x="80" y="200.0" text-anchor="end" font-size="13" fill="#444">0.70</text>
<line x1="90" y1="257.5" x2="570" y2="257.5" stroke="#eee"/>
<text x="80" y="262.5" text-anchor="end" font-size="13" fill="#444">0.69</text>
<line x1="90" y1="320.0" x2="570" y2="320.0" stroke="#eee"/>
<text x="80" y="325.0" text-anchor="end" font-size="13" fill="#444">0.68</text>
<text x="330.0" y="370" text-anchor="middle" font-size="15" fill="#333">step</text>
<polyline points="90.00,130.98 150.01,166.34 210.02,176.10 270.02,196.83 330.03,207.20 390.04,222.44 450.05,234.63 510.05,246.83 570.00,259.02" fill="none" stroke="#1f77b4" stroke-width="2.2" opacity="0.95"/>
<circle cx="90.0" cy="131.0" r="3.5" fill="#1f77b4" opacity="0.9"/>
<circle cx="150.0" cy="166.3" r="3.5" fill="#1f77b4" opacity="0.9"/>
<circle cx="210.0" cy="176.1" r="3.5" fill="#1f77b4" opacity="0.9"/>
<circle cx="270.0" cy="196.8" r="3.5" fill="#1f77b4" opacity="0.9"/>
<circle cx="330.0" cy="207.2" r="3.5" fill="#1f77b4" opacity="0.9"/>
<circle cx="390.0" cy="222.4" r="3.5" fill="#1f77b4" opacity="0.9"/>
<circle cx="450.0" cy="234.6" r="3.5" fill="#1f77b4" opacity="0.9"/>
<circle cx="510.1" cy="246.8" r="3.5" fill="#1f77b4" opacity="0.9"/>
<circle cx="570.0" cy="259.0" r="3.5" fill="#1f77b4" opacity="0.9"/>
<rect x="670" y="70" width="420" height="250" fill="#fff" stroke="#d0d0d0"/>
<text x="670" y="54" font-size="20" font-weight="700" fill="#111">Continuity signature stays torn</text>
<line x1="670.0" y1="70" x2="670.0" y2="320" stroke="#eee"/>
<text x="670.0" y="344" text-anchor="middle" font-size="13" fill="#444">0</text>
<line x1="754.0" y1="70" x2="754.0" y2="320" stroke="#eee"/>
<text x="754.0" y="344" text-anchor="middle" font-size="13" fill="#444">1600</text>
<line x1="838.0" y1="70" x2="838.0" y2="320" stroke="#eee"/>
<text x="838.0" y="344" text-anchor="middle" font-size="13" fill="#444">3200</text>
<line x1="922.0" y1="70" x2="922.0" y2="320" stroke="#eee"/>
<text x="922.0" y="344" text-anchor="middle" font-size="13" fill="#444">4799</text>
<line x1="1006.0" y1="70" x2="1006.0" y2="320" stroke="#eee"/>
<text x="1006.0" y="344" text-anchor="middle" font-size="13" fill="#444">6399</text>
<line x1="1090.0" y1="70" x2="1090.0" y2="320" stroke="#eee"/>
<text x="1090.0" y="344" text-anchor="middle" font-size="13" fill="#444">7999</text>
<line x1="670" y1="70.0" x2="1090" y2="70.0" stroke="#eee"/>
<text x="660" y="75.0" text-anchor="end" font-size="13" fill="#444">17.50</text>
<line x1="670" y1="132.5" x2="1090" y2="132.5" stroke="#eee"/>
<text x="660" y="137.5" text-anchor="end" font-size="13" fill="#444">16.75</text>
<line x1="670" y1="195.0" x2="1090" y2="195.0" stroke="#eee"/>
<text x="660" y="200.0" text-anchor="end" font-size="13" fill="#444">16.00</text>
<line x1="670" y1="257.5" x2="1090" y2="257.5" stroke="#eee"/>
<text x="660" y="262.5" text-anchor="end" font-size="13" fill="#444">15.25</text>
<line x1="670" y1="320.0" x2="1090" y2="320.0" stroke="#eee"/>
<text x="660" y="325.0" text-anchor="end" font-size="13" fill="#444">14.50</text>
<text x="880.0" y="370" text-anchor="middle" font-size="15" fill="#333">step</text>
<polyline points="670.00,192.50 722.51,210.00 775.01,205.00 827.52,115.00 880.03,220.00 932.53,199.17 985.04,186.67 1037.55,193.33 1090.00,214.17" fill="none" stroke="#9467bd" stroke-width="2.2" opacity="0.95"/>
<circle cx="670.0" cy="192.5" r="3.5" fill="#9467bd" opacity="0.9"/>
<circle cx="722.5" cy="210.0" r="3.5" fill="#9467bd" opacity="0.9"/>
<circle cx="775.0" cy="205.0" r="3.5" fill="#9467bd" opacity="0.9"/>
<circle cx="827.5" cy="115.0" r="3.5" fill="#9467bd" opacity="0.9"/>
<circle cx="880.0" cy="220.0" r="3.5" fill="#9467bd" opacity="0.9"/>
<circle cx="932.5" cy="199.2" r="3.5" fill="#9467bd" opacity="0.9"/>
<circle cx="985.0" cy="186.7" r="3.5" fill="#9467bd" opacity="0.9"/>
<circle cx="1037.5" cy="193.3" r="3.5" fill="#9467bd" opacity="0.9"/>
<circle cx="1090.0" cy="214.2" r="3.5" fill="#9467bd" opacity="0.9"/>
<rect x="90" y="430" width="1000" height="250" fill="#fff" stroke="#d0d0d0"/>
<text x="90" y="414" font-size="20" font-weight="700" fill="#111">Whole-block jump collapses early, then plateaus</text>
<line x1="90.0" y1="430" x2="90.0" y2="680" stroke="#eee"/>
<text x="90.0" y="704" text-anchor="middle" font-size="13" fill="#444">0</text>
<line x1="290.0" y1="430" x2="290.0" y2="680" stroke="#eee"/>
<text x="290.0" y="704" text-anchor="middle" font-size="13" fill="#444">1600</text>
<line x1="490.0" y1="430" x2="490.0" y2="680" stroke="#eee"/>
<text x="490.0" y="704" text-anchor="middle" font-size="13" fill="#444">3200</text>
<line x1="690.0" y1="430" x2="690.0" y2="680" stroke="#eee"/>
<text x="690.0" y="704" text-anchor="middle" font-size="13" fill="#444">4799</text>
<line x1="890.0" y1="430" x2="890.0" y2="680" stroke="#eee"/>
<text x="890.0" y="704" text-anchor="middle" font-size="13" fill="#444">6399</text>
<line x1="1090.0" y1="430" x2="1090.0" y2="680" stroke="#eee"/>
<text x="1090.0" y="704" text-anchor="middle" font-size="13" fill="#444">7999</text>
<line x1="90" y1="430.0" x2="1090" y2="430.0" stroke="#eee"/>
<text x="80" y="435.0" text-anchor="end" font-size="13" fill="#444">0.50</text>
<line x1="90" y1="492.5" x2="1090" y2="492.5" stroke="#eee"/>
<text x="80" y="497.5" text-anchor="end" font-size="13" fill="#444">0.37</text>
<line x1="90" y1="555.0" x2="1090" y2="555.0" stroke="#eee"/>
<text x="80" y="560.0" text-anchor="end" font-size="13" fill="#444">0.25</text>
<line x1="90" y1="617.5" x2="1090" y2="617.5" stroke="#eee"/>
<text x="80" y="622.5" text-anchor="end" font-size="13" fill="#444">0.12</text>
<line x1="90" y1="680.0" x2="1090" y2="680.0" stroke="#eee"/>
<text x="80" y="685.0" text-anchor="end" font-size="13" fill="#444">0.00</text>
<text x="590.0" y="730" text-anchor="middle" font-size="15" fill="#333">step</text>
<polyline points="90.00,462.61 215.02,605.97 340.03,628.30 465.05,544.65 590.06,621.70 715.08,617.21 840.09,592.52 965.11,587.73 1090.00,605.32" fill="none" stroke="#ff7f0e" stroke-width="2.2" opacity="0.95"/>
<circle cx="90.0" cy="462.6" r="3.5" fill="#ff7f0e" opacity="0.9"/>
<circle cx="215.0" cy="606.0" r="3.5" fill="#ff7f0e" opacity="0.9"/>
<circle cx="340.0" cy="628.3" r="3.5" fill="#ff7f0e" opacity="0.9"/>
<circle cx="465.0" cy="544.6" r="3.5" fill="#ff7f0e" opacity="0.9"/>
<circle cx="590.1" cy="621.7" r="3.5" fill="#ff7f0e" opacity="0.9"/>
<circle cx="715.1" cy="617.2" r="3.5" fill="#ff7f0e" opacity="0.9"/>
<circle cx="840.1" cy="592.5" r="3.5" fill="#ff7f0e" opacity="0.9"/>
<circle cx="965.1" cy="587.7" r="3.5" fill="#ff7f0e" opacity="0.9"/>
<circle cx="1090.0" cy="605.3" r="3.5" fill="#ff7f0e" opacity="0.9"/>
<text x="90" y="735" font-size="15" fill="#333">summary: max spike=0.585, spikes &gt;0.3=196, diverged=False</text>
</svg>