<svg xmlns="http://www.w3.org/2000/svg" width="1000" height="560" viewBox="0 0 1000 560">
<rect width="100%" height="100%" fill="#ffffff"/>
<text x="500.0" y="32" text-anchor="middle" font-size="22" font-weight="700">Continuity-signature scaling: hard top-k diverges at exponent ~1 (order-0 jump)</text>
<rect x="110" y="80" width="800" height="360" fill="#fff" stroke="#d0d0d0"/>
<text x="110" y="64" font-size="20" font-weight="700" fill="#111">log10  max ||dy||/||dx||  (median over 48 synthetic boundary paths)</text>
<line x1="110.0" y1="80" x2="110.0" y2="440" stroke="#eee"/>
<text x="110.0" y="464" text-anchor="middle" font-size="13" fill="#444">2</text>
<line x1="310.0" y1="80" x2="310.0" y2="440" stroke="#eee"/>
<text x="310.0" y="464" text-anchor="middle" font-size="13" fill="#444">3</text>
<line x1="510.0" y1="80" x2="510.0" y2="440" stroke="#eee"/>
<text x="510.0" y="464" text-anchor="middle" font-size="13" fill="#444">3</text>
<line x1="710.0" y1="80" x2="710.0" y2="440" stroke="#eee"/>
<text x="710.0" y="464" text-anchor="middle" font-size="13" fill="#444">4</text>
<line x1="910.0" y1="80" x2="910.0" y2="440" stroke="#eee"/>
<text x="910.0" y="464" text-anchor="middle" font-size="13" fill="#444">4</text>
<line x1="110" y1="80.0" x2="910" y2="80.0" stroke="#eee"/>
<text x="100" y="85.0" text-anchor="end" font-size="13" fill="#444">3.36</text>
<line x1="110" y1="170.0" x2="910" y2="170.0" stroke="#eee"/>
<text x="100" y="175.0" text-anchor="end" font-size="13" fill="#444">2.30</text>
<line x1="110" y1="260.0" x2="910" y2="260.0" stroke="#eee"/>
<text x="100" y="265.0" text-anchor="end" font-size="13" fill="#444">1.24</text>
<line x1="110" y1="350.0" x2="910" y2="350.0" stroke="#eee"/>
<text x="100" y="355.0" text-anchor="end" font-size="13" fill="#444">0.18</text>
<line x1="110" y1="440.0" x2="910" y2="440.0" stroke="#eee"/>
<text x="100" y="445.0" text-anchor="end" font-size="13" fill="#444">-0.88</text>
<text x="510.0" y="490" text-anchor="middle" font-size="15" fill="#333">log10  grid resolution T</text>
<line x1="110.0" y1="259.2" x2="910.0" y2="105.6" stroke="#bbb" stroke-dasharray="6 4"/>
<text x="904.0" y="97.6" text-anchor="end" font-size="12" fill="#999">slope = 1 reference</text>
<polyline points="110.00,259.22 243.33,233.58 376.67,207.96 510.00,182.35 643.33,156.74 776.67,131.14 910.00,105.51" fill="none" stroke="#9467bd" stroke-width="2.2" opacity="0.95"/>
<circle cx="110.0" cy="259.2" r="3.5" fill="#9467bd" opacity="0.9"/>
<circle cx="243.3" cy="233.6" r="3.5" fill="#9467bd" opacity="0.9"/>
<circle cx="376.7" cy="208.0" r="3.5" fill="#9467bd" opacity="0.9"/>
<circle cx="510.0" cy="182.4" r="3.5" fill="#9467bd" opacity="0.9"/>
<circle cx="643.3" cy="156.7" r="3.5" fill="#9467bd" opacity="0.9"/>
<circle cx="776.7" cy="131.1" r="3.5" fill="#9467bd" opacity="0.9"/>
<circle cx="910.0" cy="105.5" r="3.5" fill="#9467bd" opacity="0.9"/>
<polyline points="110.00,394.90 243.33,394.35 376.67,394.38 510.00,394.08 643.33,394.00 776.67,393.98 910.00,393.94" fill="none" stroke="#1f77b4" stroke-width="2.2" opacity="0.95"/>
<circle cx="110.0" cy="394.9" r="3.5" fill="#1f77b4" opacity="0.9"/>
<circle cx="243.3" cy="394.3" r="3.5" fill="#1f77b4" opacity="0.9"/>
<circle cx="376.7" cy="394.4" r="3.5" fill="#1f77b4" opacity="0.9"/>
<circle cx="510.0" cy="394.1" r="3.5" fill="#1f77b4" opacity="0.9"/>
<circle cx="643.3" cy="394.0" r="3.5" fill="#1f77b4" opacity="0.9"/>
<circle cx="776.7" cy="394.0" r="3.5" fill="#1f77b4" opacity="0.9"/>
<circle cx="910.0" cy="393.9" r="3.5" fill="#1f77b4" opacity="0.9"/>
<polyline points="110.00,414.49 243.33,414.47 376.67,414.46 510.00,414.46 643.33,414.45 776.67,414.44 910.00,414.40" fill="none" stroke="#555555" stroke-width="2.2" opacity="0.95"/>
<circle cx="110.0" cy="414.5" r="3.5" fill="#555555" opacity="0.9"/>
<circle cx="243.3" cy="414.5" r="3.5" fill="#555555" opacity="0.9"/>
<circle cx="376.7" cy="414.5" r="3.5" fill="#555555" opacity="0.9"/>
<circle cx="510.0" cy="414.5" r="3.5" fill="#555555" opacity="0.9"/>
<circle cx="643.3" cy="414.5" r="3.5" fill="#555555" opacity="0.9"/>
<circle cx="776.7" cy="414.4" r="3.5" fill="#555555" opacity="0.9"/>
<circle cx="910.0" cy="414.4" r="3.5" fill="#555555" opacity="0.9"/>
<rect x="150" y="360" width="18" height="11" fill="#9467bd"/>
<text x="176" y="370" font-size="14" fill="#222">hard top-k: exponent p = 1.00  (R² = 1.000)</text>
<rect x="150" y="382" width="18" height="11" fill="#1f77b4"/>
<text x="176" y="392" font-size="14" fill="#222">soft edge: exponent p = 0.01  (R² = 0.806)</text>
<rect x="150" y="404" width="18" height="11" fill="#555555"/>
<text x="176" y="414" font-size="14" fill="#222">tied control: exponent p = 0.00  (R² = 0.854)</text>
<text x="110" y="500" font-size="13" fill="#555">Synthetic block with an exact known C0 jump: the hard difference quotient scales as T^1.00 (slope=1), so growth = max_q[T_max]/max_q[T_min] = T_max/T_min by construction; continuity controls are flat (p~0).</text>
</svg>