<svg xmlns="http://www.w3.org/2000/svg" width="1000" height="540" viewBox="0 0 1000 540">
<rect width="100%" height="100%" fill="#ffffff"/>
<text x="500.0" y="32" text-anchor="middle" font-size="22" font-weight="700">Same-model k-sweep: hardG pinned at the grid ratio 16 for every k (exponent ~1)</text>
<rect x="110" y="80" width="800" height="360" fill="#fff" stroke="#d0d0d0"/>
<text x="110" y="64" font-size="20" font-weight="700" fill="#111">hardG (refinement growth = max_q[8000]/max_q[500]), 64 paths/layer</text>
<line x1="110.0" y1="80" x2="110.0" y2="440" stroke="#eee"/>
<text x="110.0" y="464" text-anchor="middle" font-size="13" fill="#444">-0</text>
<line x1="376.7" y1="80" x2="376.7" y2="440" stroke="#eee"/>
<text x="376.7" y="464" text-anchor="middle" font-size="13" fill="#444">1</text>
<line x1="643.3" y1="80" x2="643.3" y2="440" stroke="#eee"/>
<text x="643.3" y="464" text-anchor="middle" font-size="13" fill="#444">2</text>
<line x1="910.0" y1="80" x2="910.0" y2="440" stroke="#eee"/>
<text x="910.0" y="464" text-anchor="middle" font-size="13" fill="#444">3</text>
<line x1="110" y1="80.0" x2="910" y2="80.0" stroke="#eee"/>
<text x="100" y="85.0" text-anchor="end" font-size="13" fill="#444">17.20</text>
<line x1="110" y1="170.0" x2="910" y2="170.0" stroke="#eee"/>
<text x="100" y="175.0" text-anchor="end" font-size="13" fill="#444">16.60</text>
<line x1="110" y1="260.0" x2="910" y2="260.0" stroke="#eee"/>
<text x="100" y="265.0" text-anchor="end" font-size="13" fill="#444">16.00</text>
<line x1="110" y1="350.0" x2="910" y2="350.0" stroke="#eee"/>
<text x="100" y="355.0" text-anchor="end" font-size="13" fill="#444">15.40</text>
<line x1="110" y1="440.0" x2="910" y2="440.0" stroke="#eee"/>
<text x="100" y="445.0" text-anchor="end" font-size="13" fill="#444">14.80</text>
<text x="185.7" y="464.0" text-anchor="middle" font-size="14" fill="#444">k=1</text>
<text x="401.9" y="464.0" text-anchor="middle" font-size="14" fill="#444">k=2</text>
<text x="618.1" y="464.0" text-anchor="middle" font-size="14" fill="#444">k=4</text>
<text x="834.3" y="464.0" text-anchor="middle" font-size="14" fill="#444">k=8</text>
<line x1="110" y1="260.0" x2="910" y2="260.0" stroke="#c0392b" stroke-dasharray="6 4" opacity="0.7"/>
<text x="904" y="252.0" text-anchor="end" font-size="13" fill="#c0392b">grid ratio 8000/500 = 16</text>
<line x1="170.5" y1="266.6" x2="170.5" y2="246.0" stroke="#9467bd" stroke-width="1.4" opacity="0.55"/>
<circle cx="170.5" cy="255.2" r="3.6" fill="#9467bd"/>
<line x1="386.8" y1="267.7" x2="386.8" y2="222.3" stroke="#9467bd" stroke-width="1.4" opacity="0.55"/>
<circle cx="386.8" cy="257.1" r="3.6" fill="#9467bd"/>
<line x1="603.0" y1="301.2" x2="603.0" y2="244.1" stroke="#9467bd" stroke-width="1.4" opacity="0.55"/>
<circle cx="603.0" cy="258.6" r="3.6" fill="#9467bd"/>
<line x1="819.2" y1="305.4" x2="819.2" y2="180.6" stroke="#9467bd" stroke-width="1.4" opacity="0.55"/>
<circle cx="819.2" cy="260.5" r="3.6" fill="#9467bd"/>
<line x1="185.7" y1="266.9" x2="185.7" y2="248.8" stroke="#1f77b4" stroke-width="1.4" opacity="0.55"/>
<circle cx="185.7" cy="256.8" r="3.6" fill="#1f77b4"/>
<line x1="401.9" y1="268.1" x2="401.9" y2="117.6" stroke="#1f77b4" stroke-width="1.4" opacity="0.55"/>
<circle cx="401.9" cy="257.2" r="3.6" fill="#1f77b4"/>
<line x1="618.1" y1="271.4" x2="618.1" y2="250.8" stroke="#1f77b4" stroke-width="1.4" opacity="0.55"/>
<circle cx="618.1" cy="258.8" r="3.6" fill="#1f77b4"/>
<line x1="834.3" y1="270.6" x2="834.3" y2="252.2" stroke="#1f77b4" stroke-width="1.4" opacity="0.55"/>
<circle cx="834.3" cy="259.8" r="3.6" fill="#1f77b4"/>
<line x1="200.8" y1="262.7" x2="200.8" y2="250.1" stroke="#555555" stroke-width="1.4" opacity="0.55"/>
<circle cx="200.8" cy="256.0" r="3.6" fill="#555555"/>
<line x1="417.0" y1="409.0" x2="417.0" y2="244.1" stroke="#555555" stroke-width="1.4" opacity="0.55"/>
<circle cx="417.0" cy="258.7" r="3.6" fill="#555555"/>
<line x1="633.2" y1="290.9" x2="633.2" y2="244.2" stroke="#555555" stroke-width="1.4" opacity="0.55"/>
<circle cx="633.2" cy="261.3" r="3.6" fill="#555555"/>
<line x1="849.5" y1="352.7" x2="849.5" y2="236.0" stroke="#555555" stroke-width="1.4" opacity="0.55"/>
<circle cx="849.5" cy="272.7" r="3.6" fill="#555555"/>
<rect x="150" y="110" width="18" height="11" fill="#9467bd"/>
<text x="176" y="120" font-size="14" fill="#222">layer 0  (median ●, 64-path min–max whisker)</text>
<rect x="150" y="132" width="18" height="11" fill="#1f77b4"/>
<text x="176" y="142" font-size="14" fill="#222">layer 8  (median ●, 64-path min–max whisker)</text>
<rect x="150" y="154" width="18" height="11" fill="#555555"/>
<text x="176" y="164" font-size="14" fill="#222">layer 15  (median ●, 64-path min–max whisker)</text>
<text x="110" y="480" font-size="13" fill="#555">hardG median stays 15.92–16.03 across k=1,2,4,8 (exponent 0.998–1.001): the value is the protocol grid ratio, not a k-function. Soft/tied controls sit at ~1 (off-scale).</text>
</svg>