<svg xmlns="http://www.w3.org/2000/svg" width="1100" height="620" viewBox="0 0 1100 620">
<rect width="100%" height="100%" fill="#ffffff"/>
<text x="550.0" y="30" text-anchor="middle" font-size="24" font-weight="700">Tear-level dial: no divergence, rare severe spikes at full tear</text>
<rect x="90" y="70" width="440" height="360" fill="#fff" stroke="#d0d0d0"/>
<text x="90" y="54" font-size="20" font-weight="700" fill="#111">Spike count &gt; 0.3</text>
<line x1="90.0" y1="70" x2="90.0" y2="430" stroke="#eee"/>
<text x="90.0" y="454" text-anchor="middle" font-size="13" fill="#444">-1</text>
<line x1="178.0" y1="70" x2="178.0" y2="430" stroke="#eee"/>
<text x="178.0" y="454" text-anchor="middle" font-size="13" fill="#444">1</text>
<line x1="266.0" y1="70" x2="266.0" y2="430" stroke="#eee"/>
<text x="266.0" y="454" text-anchor="middle" font-size="13" fill="#444">2</text>
<line x1="354.0" y1="70" x2="354.0" y2="430" stroke="#eee"/>
<text x="354.0" y="454" text-anchor="middle" font-size="13" fill="#444">3</text>
<line x1="442.0" y1="70" x2="442.0" y2="430" stroke="#eee"/>
<text x="442.0" y="454" text-anchor="middle" font-size="13" fill="#444">4</text>
<line x1="530.0" y1="70" x2="530.0" y2="430" stroke="#eee"/>
<text x="530.0" y="454" text-anchor="middle" font-size="13" fill="#444">6</text>
<line x1="90" y1="70.0" x2="530" y2="70.0" stroke="#eee"/>
<text x="80" y="75.0" text-anchor="end" font-size="13" fill="#444">8.75</text>
<line x1="90" y1="160.0" x2="530" y2="160.0" stroke="#eee"/>
<text x="80" y="165.0" text-anchor="end" font-size="13" fill="#444">6.56</text>
<line x1="90" y1="250.0" x2="530" y2="250.0" stroke="#eee"/>
<text x="80" y="255.0" text-anchor="end" font-size="13" fill="#444">4.38</text>
<line x1="90" y1="340.0" x2="530" y2="340.0" stroke="#eee"/>
<text x="80" y="345.0" text-anchor="end" font-size="13" fill="#444">2.19</text>
<line x1="90" y1="430.0" x2="530" y2="430.0" stroke="#eee"/>
<text x="80" y="435.0" text-anchor="end" font-size="13" fill="#444">0.00</text>
<text x="310.0" y="480" text-anchor="middle" font-size="15" fill="#333">run</text>
<rect x="110.6" y="306.6" width="44" height="123.4" fill="#1f77b4" opacity="0.85"/>
<rect x="181.5" y="347.7" width="44" height="82.3" fill="#1f77b4" opacity="0.85"/>
<rect x="252.5" y="265.4" width="44" height="164.6" fill="#1f77b4" opacity="0.85"/>
<rect x="323.5" y="142.0" width="44" height="288.0" fill="#1f77b4" opacity="0.85"/>
<rect x="394.5" y="224.3" width="44" height="205.7" fill="#1f77b4" opacity="0.85"/>
<rect x="465.4" y="183.1" width="44" height="246.9" fill="#1f77b4" opacity="0.85"/>
<rect x="650" y="70" width="360" height="360" fill="#fff" stroke="#d0d0d0"/>
<text x="650" y="54" font-size="20" font-weight="700" fill="#111">Max spike</text>
<line x1="650.0" y1="70" x2="650.0" y2="430" stroke="#eee"/>
<text x="650.0" y="454" text-anchor="middle" font-size="13" fill="#444">-1</text>
<line x1="722.0" y1="70" x2="722.0" y2="430" stroke="#eee"/>
<text x="722.0" y="454" text-anchor="middle" font-size="13" fill="#444">1</text>
<line x1="794.0" y1="70" x2="794.0" y2="430" stroke="#eee"/>
<text x="794.0" y="454" text-anchor="middle" font-size="13" fill="#444">2</text>
<line x1="866.0" y1="70" x2="866.0" y2="430" stroke="#eee"/>
<text x="866.0" y="454" text-anchor="middle" font-size="13" fill="#444">3</text>
<line x1="938.0" y1="70" x2="938.0" y2="430" stroke="#eee"/>
<text x="938.0" y="454" text-anchor="middle" font-size="13" fill="#444">4</text>
<line x1="1010.0" y1="70" x2="1010.0" y2="430" stroke="#eee"/>
<text x="1010.0" y="454" text-anchor="middle" font-size="13" fill="#444">6</text>
<line x1="650" y1="70.0" x2="1010" y2="70.0" stroke="#eee"/>
<text x="640" y="75.0" text-anchor="end" font-size="13" fill="#444">6.07</text>
<line x1="650" y1="160.0" x2="1010" y2="160.0" stroke="#eee"/>
<text x="640" y="165.0" text-anchor="end" font-size="13" fill="#444">4.55</text>
<line x1="650" y1="250.0" x2="1010" y2="250.0" stroke="#eee"/>
<text x="640" y="255.0" text-anchor="end" font-size="13" fill="#444">3.03</text>
<line x1="650" y1="340.0" x2="1010" y2="340.0" stroke="#eee"/>
<text x="640" y="345.0" text-anchor="end" font-size="13" fill="#444">1.52</text>
<line x1="650" y1="430.0" x2="1010" y2="430.0" stroke="#eee"/>
<text x="640" y="435.0" text-anchor="end" font-size="13" fill="#444">0.00</text>
<text x="830.0" y="480" text-anchor="middle" font-size="15" fill="#333">run</text>
<rect x="662.8" y="405.0" width="44" height="25.0" fill="#d62728" opacity="0.85"/>
<rect x="720.9" y="405.0" width="44" height="25.0" fill="#d62728" opacity="0.85"/>
<rect x="779.0" y="180.0" width="44" height="250.0" fill="#d62728" opacity="0.85"/>
<rect x="837.0" y="398.6" width="44" height="31.4" fill="#d62728" opacity="0.85"/>
<rect x="895.1" y="399.0" width="44" height="31.0" fill="#d62728" opacity="0.85"/>
<rect x="953.2" y="117.0" width="44" height="313.0" fill="#d62728" opacity="0.85"/>
<text x="132.6" y="508" text-anchor="middle" font-size="12" fill="#333">seed0 tl=0.0</text>
<text x="203.5" y="508" text-anchor="middle" font-size="12" fill="#333">seed0 tl=0.5</text>
<text x="274.5" y="508" text-anchor="middle" font-size="12" fill="#333">seed0 tl=1.0</text>
<text x="345.5" y="508" text-anchor="middle" font-size="12" fill="#333">seed1 tl=0.0</text>
<text x="416.5" y="508" text-anchor="middle" font-size="12" fill="#333">seed1 tl=0.5</text>
<text x="487.4" y="508" text-anchor="middle" font-size="12" fill="#333">seed1 tl=1.0</text>
<text x="684.8" y="508" text-anchor="middle" font-size="12" fill="#333">seed0 tl=0.0</text>
<text x="742.9" y="508" text-anchor="middle" font-size="12" fill="#333">seed0 tl=0.5</text>
<text x="801.0" y="508" text-anchor="middle" font-size="12" fill="#333">seed0 tl=1.0</text>
<text x="859.0" y="508" text-anchor="middle" font-size="12" fill="#333">seed1 tl=0.0</text>
<text x="917.1" y="508" text-anchor="middle" font-size="12" fill="#333">seed1 tl=0.5</text>
<text x="975.2" y="508" text-anchor="middle" font-size="12" fill="#333">seed1 tl=1.0</text>
</svg>