<svg xmlns="http://www.w3.org/2000/svg" width="1180" height="720" viewBox="0 0 1180 720">
<rect width="100%" height="100%" fill="#ffffff"/>
<text x="590.0" y="32" text-anchor="middle" font-size="24" font-weight="700">Clamp caps amplitude, not topology</text>
<rect x="80" y="80" width="300" height="350" fill="#fff" stroke="#d0d0d0"/>
<text x="80" y="64" font-size="20" font-weight="700" fill="#111">Topology: hardG</text>
<line x1="80" y1="80.0" x2="380" y2="80.0" stroke="#eee"/>
<text x="70" y="85.0" text-anchor="end" font-size="13" fill="#444">16.19</text>
<line x1="80" y1="167.5" x2="380" y2="167.5" stroke="#eee"/>
<text x="70" y="172.5" text-anchor="end" font-size="13" fill="#444">16.09</text>
<line x1="80" y1="255.0" x2="380" y2="255.0" stroke="#eee"/>
<text x="70" y="260.0" text-anchor="end" font-size="13" fill="#444">15.99</text>
<line x1="80" y1="342.5" x2="380" y2="342.5" stroke="#eee"/>
<text x="70" y="347.5" text-anchor="end" font-size="13" fill="#444">15.90</text>
<line x1="80" y1="430.0" x2="380" y2="430.0" stroke="#eee"/>
<text x="70" y="435.0" text-anchor="end" font-size="13" fill="#444">15.80</text>
<polyline points="110.00,223.92 170.00,223.92 230.00,225.75 290.00,226.60 350.00,229.44" fill="none" stroke="#9467bd" stroke-width="2.8" opacity="0.95"/>
<circle cx="110.0" cy="223.9" r="4.0" fill="#9467bd" opacity="0.9"/>
<circle cx="170.0" cy="223.9" r="4.0" fill="#9467bd" opacity="0.9"/>
<circle cx="230.0" cy="225.8" r="4.0" fill="#9467bd" opacity="0.9"/>
<circle cx="290.0" cy="226.6" r="4.0" fill="#9467bd" opacity="0.9"/>
<circle cx="350.0" cy="229.4" r="4.0" fill="#9467bd" opacity="0.9"/>
<text x="110.0" y="502" text-anchor="middle" font-size="12" fill="#333">none</text>
<text x="170.0" y="502" text-anchor="middle" font-size="12" fill="#333">p999</text>
<text x="230.0" y="502" text-anchor="middle" font-size="12" fill="#333">p990</text>
<text x="290.0" y="502" text-anchor="middle" font-size="12" fill="#333">p950</text>
<text x="350.0" y="502" text-anchor="middle" font-size="12" fill="#333">p900</text>
<rect x="450" y="80" width="300" height="350" fill="#fff" stroke="#d0d0d0"/>
<text x="450" y="64" font-size="20" font-weight="700" fill="#111">Absolute expert cliff</text>
<line x1="450" y1="80.0" x2="750" y2="80.0" stroke="#eee"/>
<text x="440" y="85.0" text-anchor="end" font-size="13" fill="#444">3.33</text>
<line x1="450" y1="167.5" x2="750" y2="167.5" stroke="#eee"/>
<text x="440" y="172.5" text-anchor="end" font-size="13" fill="#444">2.50</text>
<line x1="450" y1="255.0" x2="750" y2="255.0" stroke="#eee"/>
<text x="440" y="260.0" text-anchor="end" font-size="13" fill="#444">1.67</text>
<line x1="450" y1="342.5" x2="750" y2="342.5" stroke="#eee"/>
<text x="440" y="347.5" text-anchor="end" font-size="13" fill="#444">0.83</text>
<line x1="450" y1="430.0" x2="750" y2="430.0" stroke="#eee"/>
<text x="440" y="435.0" text-anchor="end" font-size="13" fill="#444">0.00</text>
<rect x="459.0" y="125.7" width="42" height="304.3" fill="#ff7f0e" opacity="0.82"/>
<rect x="519.0" y="137.0" width="42" height="293.0" fill="#ff7f0e" opacity="0.82"/>
<rect x="579.0" y="159.0" width="42" height="271.0" fill="#ff7f0e" opacity="0.82"/>
<rect x="639.0" y="195.0" width="42" height="235.0" fill="#ff7f0e" opacity="0.82"/>
<rect x="699.0" y="223.7" width="42" height="206.3" fill="#ff7f0e" opacity="0.82"/>
<text x="480.0" y="502" text-anchor="middle" font-size="12" fill="#333">none</text>
<text x="540.0" y="502" text-anchor="middle" font-size="12" fill="#333">p999</text>
<text x="600.0" y="502" text-anchor="middle" font-size="12" fill="#333">p990</text>
<text x="660.0" y="502" text-anchor="middle" font-size="12" fill="#333">p950</text>
<text x="720.0" y="502" text-anchor="middle" font-size="12" fill="#333">p900</text>
<rect x="820" y="80" width="280" height="350" fill="#fff" stroke="#d0d0d0"/>
<text x="820" y="64" font-size="20" font-weight="700" fill="#111">Hook-path ppl</text>
<line x1="820" y1="80.0" x2="1100" y2="80.0" stroke="#eee"/>
<text x="810" y="85.0" text-anchor="end" font-size="13" fill="#444">19924.35</text>
<line x1="820" y1="167.5" x2="1100" y2="167.5" stroke="#eee"/>
<text x="810" y="172.5" text-anchor="end" font-size="13" fill="#444">14943.26</text>
<line x1="820" y1="255.0" x2="1100" y2="255.0" stroke="#eee"/>
<text x="810" y="260.0" text-anchor="end" font-size="13" fill="#444">9962.18</text>
<line x1="820" y1="342.5" x2="1100" y2="342.5" stroke="#eee"/>
<text x="810" y="347.5" text-anchor="end" font-size="13" fill="#444">4981.09</text>
<line x1="820" y1="430.0" x2="1100" y2="430.0" stroke="#eee"/>
<text x="810" y="435.0" text-anchor="end" font-size="13" fill="#444">0.00</text>
<rect x="827.0" y="428.5" width="42" height="1.5" fill="#d62728" opacity="0.82"/>
<rect x="883.0" y="424.1" width="42" height="5.9" fill="#d62728" opacity="0.82"/>
<rect x="939.0" y="403.3" width="42" height="26.7" fill="#d62728" opacity="0.82"/>
<rect x="995.0" y="306.7" width="42" height="123.3" fill="#d62728" opacity="0.82"/>
<rect x="1051.0" y="111.8" width="42" height="318.2" fill="#d62728" opacity="0.82"/>
<text x="848.0" y="502" text-anchor="middle" font-size="12" fill="#333">none</text>
<text x="904.0" y="502" text-anchor="middle" font-size="12" fill="#333">p999</text>
<text x="960.0" y="502" text-anchor="middle" font-size="12" fill="#333">p990</text>
<text x="1016.0" y="502" text-anchor="middle" font-size="12" fill="#333">p950</text>
<text x="1072.0" y="502" text-anchor="middle" font-size="12" fill="#333">p900</text>
<text x="80" y="620" font-size="13" fill="#555">native ppl=10.04; hook hard baseline ppl=87.54. Compare clamp rows within the hook path.</text>
<text x="80" y="646" font-size="13" fill="#555">abs jump: 0.214 → 0.164; M2 stays 0.705 → 0.701.</text>
</svg>